<svg xmlns="http://www.w3.org/2000/svg" viewBox="0 0 64 64" width="64" height="64">
  <defs>
    <linearGradient id="bg" x1="0" y1="0" x2="0" y2="1">
      <stop offset="0" stop-color="#1d6fb8"/>
      <stop offset="1" stop-color="#0d3b66"/>
    </linearGradient>
  </defs>
  <rect width="64" height="64" rx="14" fill="url(#bg)"/>
  <!-- Stylised brain: two lobes with a central fissure -->
  <g fill="none" stroke="#ffffff" stroke-width="3" stroke-linecap="round" stroke-linejoin="round">
    <path d="M32 18v30"/>
    <path d="M32 20c-2-4-7-5-10-2-4-1-7 2-6 6-3 2-3 6 0 8-1 4 2 7 6 6 2 3 7 3 10 0"/>
    <path d="M32 20c2-4 7-5 10-2 4-1 7 2 6 6 3 2 3 6 0 8 1 4-2 7-6 6-2 3-7 3-10 0"/>
    <path d="M32 27c-2 1-4 1-5-1M32 35c-2-1-4-1-5 1M32 27c2 1 4 1 5-1M32 35c2-1 4-1 5 1"/>
  </g>
</svg>
